<svg width="22" height="16" viewBox="0 0 22 16" fill="none" xmlns="http://www.w3.org/2000/svg">
<path fill-rule="evenodd" clip-rule="evenodd" d="M8.67347 0.154163L8.66877 0.147363C8.66617 0.144083 8.66397 0.140693 8.66177 0.137313L8.65687 0.130043C8.62287 0.0903532 8.58077 0.055703 8.52887 0.0323929C8.35357 -0.0457276 8.14367 0.0223125 8.05947 0.184223C8.02077 0.258874 8.01667 0.339824 8.03907 0.413535C8.47947 2.18154 8.28287 3.30428 8.00487 4.8917C7.92727 5.33523 7.84327 5.81494 7.76497 6.35524C7.623 7.33385 7.50005 9.10726 7.46813 10.3178V15.9999H10.3687H10.5521V10.0337V7.38205C10.5511 4.81994 10.171 2.3123 8.68367 0.169734C8.68037 0.164264 8.67697 0.159254 8.67347 0.154163ZM1.01275 8.37465L1.01207 8.37565C0.900657 8.32235 0.758686 8.31545 0.606865 8.42415C0.589885 8.43605 0.574595 8.45185 0.563735 8.46885C0.460134 8.62545 0.493425 8.77815 0.587845 8.87965C2.6529 11.2648 3.54752 12.8444 3.9568 15.8532C3.96801 15.937 4.04443 16 4.13545 16H6.4087C6.50821 16 6.58905 15.925 6.58905 15.8327V8.67515C6.58905 8.30535 6.50108 7.94035 6.33228 7.60545C5.1391 5.24053 3.92453 3.25891 1.53546 1.90098C1.5304 1.89757 1.52503 1.89459 1.51955 1.89156L1.51168 1.88712C1.50557 1.88334 1.49945 1.87988 1.49198 1.87736C1.38058 1.82413 1.23895 1.8172 1.08713 1.92555C1.07048 1.93752 1.0552 1.95296 1.04433 1.96965C0.940057 2.1262 0.973007 2.27961 1.06777 2.38135C3.1413 4.77559 3.79682 7.34565 4.20168 10.3705C4.22274 10.5296 4.01624 10.6247 3.89599 10.5097C3.05096 9.70106 2.09621 8.99046 1.05486 8.39895C1.04984 8.39535 1.04449 8.39245 1.03927 8.38965L1.03278 8.38605L1.02509 8.38155C1.021 8.37915 1.01693 8.37685 1.01275 8.37465ZM20.9873 8.37465L20.9883 8.37565C21.0997 8.32235 21.2413 8.31545 21.3935 8.42415C21.4102 8.43605 21.4255 8.45185 21.4367 8.46885C21.54 8.62545 21.5069 8.77815 21.4122 8.87965C19.3472 11.2648 18.4525 12.8444 18.0436 15.8532C18.0321 15.937 17.956 16 17.8649 16H15.5917C15.4919 16 15.4114 15.925 15.4114 15.8327V8.67515C15.4114 8.30535 15.4993 7.94035 15.6681 7.60545C16.8613 5.24053 18.0755 3.25891 20.4646 1.90098C20.4694 1.89772 20.4747 1.89485 20.48 1.89195L20.4887 1.88712C20.4948 1.88334 20.5009 1.87988 20.5084 1.87736C20.6198 1.82413 20.7611 1.8172 20.9129 1.92555C20.9299 1.93752 20.9448 1.95296 20.956 1.96965C21.06 2.1262 21.027 2.27961 20.9323 2.38135C18.8587 4.77559 18.2036 7.34565 17.7987 10.3705C17.7777 10.5296 17.9842 10.6247 18.1041 10.5097C18.9494 9.70106 19.9042 8.99046 20.9455 8.39895C20.9508 8.39495 20.9568 8.39185 20.9627 8.38865L20.9676 8.38605L20.9757 8.38125C20.9795 8.37895 20.9833 8.37675 20.9873 8.37465ZM11.4758 7.37995C11.4757 7.38065 11.4755 7.38145 11.4755 7.38205V10.0337V15.9999H11.6586H14.5595V10.3178C14.5276 9.10726 14.4046 7.33385 14.2627 6.35524C14.1845 5.81614 14.1006 5.33723 14.0231 4.89449C13.7448 3.30562 13.5482 2.18271 13.9899 0.414165L13.9886 0.413535C14.011 0.339824 14.0069 0.258874 13.9682 0.184223C13.884 0.0223125 13.6737 -0.0457276 13.4988 0.0323929C13.4465 0.055703 13.4047 0.0903531 13.3718 0.130673L13.3708 0.130043C13.3682 0.133333 13.366 0.136723 13.3638 0.140103C13.3622 0.142553 13.3606 0.144983 13.3589 0.147363L13.3576 0.149113C13.3526 0.156003 13.348 0.162464 13.3439 0.169734C11.8566 2.3123 11.4762 4.81994 11.4759 7.37895C11.4759 7.37925 11.4758 7.37955 11.4758 7.37995Z" fill="#A8C66C"/>
</svg>
